<?xml version="1.0" encoding="UTF-8"?>
<svg version="1.1" xmlns="http://www.w3.org/2000/svg" width="2362" height="2362">
<path d="M0 0 C130.02 0 260.04 0 394 0 C394 139.52645076 394 139.52645076 390.25 175.5625 C390.16696625 176.3735318 390.0839325 177.1845636 389.99838257 178.02017212 C381.13045357 263.8921926 359.47895692 347.7961882 281.76025391 516.97119141 C280.18422678 519.6830073 278.62339221 522.40303715 277.06759644 525.12649536 C267.07962247 542.58960885 256.34869554 559.39139129 245 576 C243.97038671 577.52408646 242.9416243 579.0487484 241.9140625 580.57421875 C228.43356394 600.49981715 213.73615756 619.55584235 198.50146484 638.16210938 C197.15803439 639.80655563 195.82261569 641.45753952 194.48828125 643.109375 C190.17627275 648.43730173 185.73101073 653.59914911 181.1171875 658.66796875 C179.21948831 660.75823889 177.35266585 662.86986115 175.5 665 C171.38532283 669.71453899 167.21249402 674.37263915 163 679 C162.56494141 679.48162598 162.12988281 679.96325195 161.68164062 680.45947266 C152.95582935 690.0929406 143.80466258 699.30239362 134.625 708.5 C134.01345062 709.11413757 133.40190125 709.72827515 132.77182007 710.36102295 C120.99918126 722.17290454 120.99918126 722.17290454 114.7578125 727.48730469 C111.63460139 730.17500136 108.67760015 733.04124755 105.6875 735.875 C99.66896175 741.53365301 93.47690125 746.86808119 87 752 C84.93298513 753.64015948 82.87040897 755.28592975 80.8125 756.9375 C79.89082031 757.66839844 78.96914062 758.39929687 78.01953125 759.15234375 C77.35308594 759.76207031 76.68664063 760.37179687 76 761 C76 761.66 76 762.32 76 763 C77.46690559 764.3327188 79.00322501 765.58913869 80.5625 766.8125 C91.91327881 775.90477982 102.7595312 785.55892658 113.37841797 795.49169922 C114.96256661 796.96518165 116.55929307 798.4236208 118.16015625 799.87890625 C127.18450048 808.1296219 135.84703118 816.73888553 144.5 825.375 C145.42161423 826.29273193 145.42161423 826.29273193 146.36184692 827.22900391 C158.20357476 839.03138782 158.20357476 839.03138782 163.51855469 845.2734375 C166.03891405 848.21081084 168.71958868 850.99773148 171.375 853.8125 C176.10196376 858.85910944 180.57509143 864.03334148 184.8984375 869.43359375 C186.98001427 871.97559363 189.1503838 874.39529335 191.375 876.8125 C196.37492744 882.31328373 200.91866382 888.13608991 205.45947266 894.01367188 C207.08176452 896.1054257 208.71733548 898.18625789 210.35546875 900.265625 C217.93230174 909.90385681 225.260907 919.68854107 232.35693359 929.68603516 C233.45844166 931.23731205 234.56297092 932.78644783 235.67041016 934.33349609 C256.56786148 963.53688567 275.16191931 994.29431343 292 1026 C292.48388184 1026.9060498 292.96776367 1027.81209961 293.46630859 1028.74560547 C332.80438356 1102.5384975 361.11951489 1181.96499241 391.25 1360.0625 C391.33326538 1361.01565094 391.41653076 1361.96880188 391.50231934 1362.95083618 C391.74164474 1365.72849687 391.9740448 1368.50663311 392.203125 1371.28515625 C392.269552 1372.070578 392.335979 1372.85599976 392.40441895 1373.66522217 C396.39314598 1423.54687361 394 1474.45547241 394 1524 C263.98 1524 133.96 1524 0 1524 C-0.33 1486.05 -0.66 1448.1 -1 1409 C-3.12831241 1383.37317015 -3.12831241 1383.37317015 -6.6875 1358 C-6.81316345 1357.27094452 -6.9388269 1356.54188904 -7.06829834 1355.79074097 C-21.48045986 1272.56600518 -57.63828325 1194.69416634 -112 1130 C-112.42539063 1129.48969238 -112.85078125 1128.97938477 -113.2890625 1128.45361328 C-126.09093336 1113.12337293 -139.67138565 1097.86874457 -154.859375 1084.86328125 C-157.33186486 1082.71113223 -159.72271357 1080.48019281 -162.125 1078.25 C-167.88447064 1073.00476781 -173.92612836 1068.20502805 -180.10351562 1063.46386719 C-182.0231476 1061.98213272 -183.92641194 1060.48120403 -185.828125 1058.9765625 C-211.9388283 1038.46672181 -240.39771802 1021.88296692 -270 1007 C-271.26529541 1006.35635498 -271.26529541 1006.35635498 -272.55615234 1005.69970703 C-365.12914104 958.81362123 -461.82202564 959.92052229 -564 959 C-564 1145.45 -564 1331.9 -564 1524 C-694.02 1524 -824.04 1524 -958 1524 C-958.12113593 1377.81136826 -958.12113593 1377.81136826 -958.14449489 1321.66957021 C-958.15061781 1306.99072441 -958.1568812 1292.31187869 -958.16357798 1277.63303314 C-958.16438752 1275.85776722 -958.16519263 1274.0825013 -958.16599327 1272.30723538 C-958.17876744 1244.06393373 -958.20125892 1215.82065024 -958.22889166 1187.57735955 C-958.25726696 1158.52197049 -958.27567424 1129.46659144 -958.28174497 1100.41118875 C-958.28260929 1096.29642907 -958.28358619 1092.18166943 -958.28463173 1088.06690979 C-958.284834 1087.25715799 -958.28503627 1086.4474062 -958.28524467 1085.61311647 C-958.28877389 1072.63895113 -958.30264469 1059.664817 -958.3204961 1046.69066434 C-958.33826848 1033.61056212 -958.34487652 1020.53049047 -958.34050413 1007.45037663 C-958.33843948 1000.37819832 -958.34107412 993.30610348 -958.35761642 986.23394203 C-958.50634556 920.02180419 -951.29599161 858.17428714 -924 797 C-923.57493164 796.04673828 -923.14986328 795.09347656 -922.71191406 794.11132812 C-907.81085032 761.08007621 -887.90239178 730.238522 -864 703 C-863.39027344 702.29101562 -862.78054688 701.58203125 -862.15234375 700.8515625 C-850.60583148 687.47617004 -838.50451529 674.42317423 -825 663 C-823.54980469 661.71609375 -823.54980469 661.71609375 -822.0703125 660.40625 C-801.63878541 642.39340836 -778.82340324 627.13891255 -755 614 C-754.1224707 613.5153125 -753.24494141 613.030625 -752.34082031 612.53125 C-686.88416142 576.68760363 -616.40758701 565.03380399 -542.54829407 564.80076981 C-539.02510718 564.78860987 -535.50202402 564.76908293 -531.97888184 564.74765015 C-521.98205179 564.68722961 -511.98524071 564.63231617 -501.98828125 564.59863281 C-394.18032721 564.21527251 -290.94808455 540.91112908 -202 477 C-201.19594727 476.42507813 -200.39189453 475.85015625 -199.56347656 475.2578125 C-190.39155996 468.67616298 -181.44967497 461.92804593 -172.92578125 454.5234375 C-170.06166266 452.05318301 -167.13834776 449.67802228 -164.1875 447.3125 C-160.16557875 444.04250316 -156.48664026 440.59987178 -152.87890625 436.8828125 C-151.07018529 435.07033121 -149.20024519 433.40790864 -147.25 431.75 C-139.54883797 425.11211478 -132.34123916 417.77942868 -125.7578125 410.03515625 C-123.6473586 407.59171962 -121.44707121 405.24081179 -119.25 402.875 C-114.0258191 397.13941585 -109.25999468 391.11455035 -104.52880859 384.97021484 C-102.90657432 382.87959992 -101.26207472 380.80800363 -99.61328125 378.73828125 C-83.35985586 358.25441979 -69.6430638 336.13652988 -57.18212891 313.171875 C-56.05320404 311.09774951 -54.90866421 309.03294827 -53.76171875 306.96875 C-26.47945705 257.31624356 -10.55214013 200.70395965 -3.75 144.6875 C-3.66682526 144.00329987 -3.58365051 143.31909973 -3.49795532 142.61416626 C2.1844986 95.27133382 -0.41603621 47.84416424 0 0 Z " fill="#E78E32" transform="translate(1463,419)"/>
<path d="M0 0 C1.19185913 0.00310181 2.38371826 0.00620361 3.61169434 0.00939941 C6.51849908 0.01741517 9.42525181 0.02866501 12.33203125 0.04296875 C12.51263472 52.70842093 12.67376534 105.37392751 12.8229869 158.03947765 C12.83199214 161.21667108 12.84102434 164.39386444 12.85005713 167.5710578 C13.11986834 262.64375485 13.32872899 357.71653871 13.39485961 697.68454207 C13.3944206 700.92127191 13.39399413 704.15800175 13.39356726 707.39473159 C13.39059906 729.85503337 13.38715229 752.31533504 13.38320673 774.77563667 C13.38271409 777.5830437 13.38222694 780.39045074 13.38174039 783.19785777 C13.37143595 841.47956369 13.350696 899.76126438 13.33203125 958.04296875 C-116.68796875 958.04296875 -246.70796875 958.04296875 -380.66796875 958.04296875 C-380.78910468 811.85433701 -380.78910468 811.85433701 -380.81246364 755.71253896 C-380.81858656 741.03369316 -380.82484995 726.35484744 -380.83154673 711.67600189 C-380.83235627 709.90073597 -380.83316138 708.12547005 -380.83396202 706.35020413 C-380.84673619 678.10690248 -380.86922767 649.86361899 -380.89686041 621.6203283 C-380.92523571 592.56493924 -380.94364299 563.50956019 -380.94971372 534.4541575 C-380.95057804 530.33939782 -380.95155494 526.22463818 -380.95260048 522.10987854 C-380.95280275 521.30012674 -380.95300502 520.49037495 -380.95321342 519.65608522 C-380.95674264 506.68191988 -380.97061344 493.70778575 -380.98846485 480.73363309 C-381.00623723 467.65353087 -381.01284527 454.57345922 -381.00847288 441.49334538 C-381.00640823 434.42116707 -381.00904287 427.34907223 -381.02558517 420.27691078 C-381.17431431 354.06477294 -373.96396036 292.21725589 -346.66796875 231.04296875 C-346.24290039 230.08970703 -345.81783203 229.13644531 -345.37988281 228.15429688 C-330.47881907 195.12304496 -310.57036053 164.28149075 -286.66796875 137.04296875 C-286.05824219 136.33398438 -285.44851563 135.625 -284.8203125 134.89453125 C-273.27380023 121.51913879 -261.17248404 108.46614298 -247.66796875 97.04296875 C-246.70117188 96.18703125 -245.734375 95.33109375 -244.73828125 94.44921875 C-224.30675416 76.43637711 -201.49137199 61.1818813 -177.66796875 48.04296875 C-176.79043945 47.55828125 -175.91291016 47.07359375 -175.00878906 46.57421875 C-122.11326814 17.60897093 -60.54845586 -0.30315567 0 0 Z " fill="#E88E33" transform="translate(885.66796875,984.95703125)"/>
<path d="M0 0 C2.98078408 1.70783526 5.20858597 3.66348721 7.6953125 6.03515625 C11.27305979 9.39552143 14.91092136 12.60817324 18.7578125 15.66015625 C25.58439197 21.17205922 31.87505127 27.23967741 38.23291016 33.27880859 C40.4772352 35.38529541 42.74548891 37.46389559 45.01831055 39.53953552 C52.38735141 46.28287837 59.50598643 53.25411452 66.55664062 60.32861328 C68.46109755 62.23848619 70.37092069 64.14287774 72.28125 66.046875 C77.72200477 71.48467087 83.12528301 76.90334957 88.11083984 82.76806641 C90.62133993 85.70020284 93.29705433 88.47797015 95.9453125 91.28515625 C100.67227626 96.33176569 105.14540393 101.50599773 109.46875 106.90625 C111.55032677 109.44824988 113.7206963 111.8679496 115.9453125 114.28515625 C120.94523994 119.78593998 125.48897632 125.60874616 130.02978516 131.48632812 C131.65207702 133.57808195 133.28764798 135.65891414 134.92578125 137.73828125 C142.50261424 147.37651306 149.8312195 157.16119732 156.92724609 167.15869141 C158.02875416 168.7099683 159.13328342 170.25910408 160.24072266 171.80615234 C181.13817398 201.00954192 199.73223181 231.76696968 216.5703125 263.47265625 C217.05419434 264.37870605 217.53807617 265.28475586 218.03662109 266.21826172 C257.37469606 340.01115375 285.68982739 419.43764866 315.8203125 597.53515625 C315.90357788 598.48830719 315.98684326 599.44145813 316.07263184 600.42349243 C316.31195724 603.20115312 316.5443573 605.97928936 316.7734375 608.7578125 C316.873078 609.93594513 316.873078 609.93594513 316.97473145 611.13787842 C320.96345848 661.01952986 318.5703125 711.92812866 318.5703125 761.47265625 C188.5503125 761.47265625 58.5303125 761.47265625 -75.4296875 761.47265625 C-75.7596875 723.52265625 -76.0896875 685.57265625 -76.4296875 646.47265625 C-78.55799991 620.8458264 -78.55799991 620.8458264 -82.1171875 595.47265625 C-82.24285095 594.74360077 -82.3685144 594.01454529 -82.49798584 593.26339722 C-96.91014736 510.03866143 -133.06797075 432.16682259 -187.4296875 367.47265625 C-187.85507813 366.96234863 -188.28046875 366.45204102 -188.71875 365.92626953 C-201.52062086 350.59602918 -215.10107315 335.34140082 -230.2890625 322.3359375 C-232.76155236 320.18378848 -235.15240107 317.95284906 -237.5546875 315.72265625 C-243.31415814 310.47742406 -249.35581586 305.6776843 -255.53320312 300.93652344 C-257.4528351 299.45478897 -259.35609944 297.95386028 -261.2578125 296.44921875 C-287.3685158 275.93937806 -315.82740552 259.35562317 -345.4296875 244.47265625 C-346.27321777 244.04355957 -347.11674805 243.61446289 -347.98583984 243.17236328 C-399.37748386 217.1436797 -457.26463851 203.38214685 -514.4296875 198.47265625 C-515.34567719 198.38664154 -516.26166687 198.30062683 -517.20541382 198.21200562 C-529.47654215 197.18014718 -541.77191033 197.24307496 -554.078125 197.15625 C-556.54676633 197.13564262 -559.01540444 197.11464526 -561.48403931 197.09327698 C-567.93812422 197.03844666 -574.39223888 196.98886748 -580.84637451 196.94042969 C-587.44969283 196.88992708 -594.05296869 196.83439211 -600.65625 196.77929688 C-613.58069255 196.67219384 -626.50517151 196.57047413 -639.4296875 196.47265625 C-639.4296875 196.14265625 -639.4296875 195.81265625 -639.4296875 195.47265625 C-638.83244086 195.46842431 -638.23519423 195.46419237 -637.61984921 195.45983219 C-622.97426098 195.35576833 -608.32871237 195.2470303 -593.68319607 195.13331699 C-586.60025392 195.07843092 -579.51730684 195.0250311 -572.43432617 194.9753418 C-566.24875052 194.93194407 -560.06320531 194.88554237 -553.8776775 194.8357777 C-550.61345805 194.8096144 -547.34924243 194.78523767 -544.08498955 194.76358223 C-522.54544543 194.61918328 -501.07909501 194.07457632 -479.6171875 192.16015625 C-478.89542328 192.09707275 -478.17365906 192.03398926 -477.43002319 191.96899414 C-466.01580235 190.96685296 -454.62451382 189.78700488 -443.2421875 188.47265625 C-442.55724213 188.39502045 -441.87229675 188.31738464 -441.16659546 188.23739624 C-433.18246553 187.32485185 -425.30273336 186.1491723 -417.41848755 184.61695862 C-412.86476802 183.73233824 -408.30490672 182.94618335 -403.72265625 182.21875 C-369.39133198 176.73643401 -335.63982039 168.75003263 -302.4296875 158.47265625 C-300.55543091 157.89656616 -300.55543091 157.89656616 -298.64331055 157.30883789 C-214.48386926 131.32782549 -132.41141933 93.72774451 -60.32617188 42.80859375 C-58.36273033 41.42548972 -56.38931731 40.05757672 -54.4140625 38.69140625 C-38.89486324 27.90991634 -23.95578829 16.33816926 -9.14453125 4.609375 C-7.80068359 3.55169922 -7.80068359 3.55169922 -6.4296875 2.47265625 C-5.41068359 1.52326172 -5.41068359 1.52326172 -4.37109375 0.5546875 C-2.4296875 -0.52734375 -2.4296875 -0.52734375 0 0 Z " fill="#93BD01" transform="translate(1538.4296875,1181.52734375)"/>
<path d="M0 0 C1.16394791 0.00133942 2.32789581 0.00267883 3.52711487 0.00405884 C4.85258583 0.006642 4.85258583 0.006642 6.20483398 0.00927734 C6.25182177 23.75980482 6.28695273 47.5103252 6.30845833 71.26089001 C6.31871484 82.29186252 6.33266577 93.32280594 6.35571289 104.35375977 C6.37582096 113.98270051 6.38859112 123.61162017 6.39301097 133.24058133 C6.39558929 138.32596886 6.40152774 143.4112961 6.4162941 148.49666405 C6.49200404 175.6296251 6.38188341 202.71880418 2.45483398 229.63427734 C2.20213745 231.40291138 2.20213745 231.40291138 1.94433594 233.20727539 C-3.95038445 272.6270692 -16.21269899 311.27034523 -33.79516602 347.00927734 C-34.26148438 347.96108887 -34.72780273 348.91290039 -35.20825195 349.89355469 C-45.39919766 370.50276645 -57.23530811 390.1785784 -71.44262695 408.27587891 C-72.74986664 409.95122219 -74.03042017 411.64343254 -75.30297852 413.34521484 C-108.21796539 457.2098767 -150.85264597 492.63739769 -198.79516602 519.00927734 C-199.97731689 519.6710498 -199.97731689 519.6710498 -201.18334961 520.34619141 C-253.6562093 549.60646314 -314.33507981 564.82715183 -374.17407227 566.58740234 C-375.50713237 566.62951704 -376.84018102 566.6719961 -378.17321777 566.71484375 C-381.38044064 566.81654504 -384.58772821 566.91464289 -387.79516602 567.00927734 C-387.86567583 542.13711935 -387.91835758 517.26497663 -387.95060253 492.39273834 C-387.96598149 480.84056734 -387.98689626 469.28845892 -388.02148438 457.73632812 C-388.05166481 447.65139674 -388.07080591 437.56651074 -388.0774315 427.48153543 C-388.08129599 422.15624772 -388.09018334 416.83108968 -388.11235619 411.50584412 C-388.52500818 308.23870769 -359.15164954 211.23469099 -289.79516602 133.00927734 C-288.5615332 131.60742188 -288.5615332 131.60742188 -287.30297852 130.17724609 C-275.86414123 117.43773105 -263.88649 104.5000913 -250.33422852 93.98974609 C-247.93042409 92.11477864 -245.62888244 90.14955301 -243.33154297 88.14648438 C-224.65854765 71.94554387 -203.55223343 58.82958028 -181.84301758 47.12353516 C-179.9895327 46.11503433 -178.15295342 45.0756149 -176.31860352 44.03271484 C-123.70055355 14.63918349 -59.96209901 -0.08965413 0 0 Z " fill="#93BE01" transform="translate(892.795166015625,426.99072265625)"/>
</svg>
