<?xml version="1.0" encoding="UTF-8"?>
<svg version="1.1" xmlns="http://www.w3.org/2000/svg" width="2362" height="2362">
<path d="M0 0 C32.34 0 64.68 0 98 0 C98 45.18284458 94.58040006 84.26852533 73 124 C72.47237061 124.99290039 72.47237061 124.99290039 71.93408203 126.00585938 C63.92704808 141.04828721 54.21700108 154.21044396 43 167 C42.20335937 167.92039062 41.40671875 168.84078125 40.5859375 169.7890625 C36.039621 174.96030223 31.30683748 179.6165745 26 184 C25.39542969 184.50789063 24.79085938 185.01578125 24.16796875 185.5390625 C22.78413107 186.69928238 21.39298927 187.85078385 20 189 C23.26664483 192.32211616 26.62001235 195.51316976 30.06103516 198.65380859 C35.73409642 203.84126192 41.15898212 209.01379509 46 215 C46.88626324 216.05116547 47.77303078 217.10190585 48.66015625 218.15234375 C71.3829175 245.41816283 87.14512834 278.34496157 94.25 313.125 C94.40114258 313.86298828 94.55228516 314.60097656 94.70800781 315.36132812 C98.80607444 336.87849059 98 356.74522272 98 379 C65.66 379 33.32 379 0 379 C-0.99 360.685 -0.99 360.685 -2 342 C-5.71766486 318.45478919 -14.39738169 298.11410617 -30 280 C-30.58910156 279.26652344 -31.17820312 278.53304688 -31.78515625 277.77734375 C-49.9711297 255.88467508 -78.4179628 243.94029103 -106 240 C-122.83 239.505 -122.83 239.505 -140 239 C-140 285.2 -140 331.4 -140 379 C-172.34 379 -204.68 379 -238 379 C-238.16121214 340.81511414 -238.16121214 340.81511414 -238.1953125 324.73242188 C-238.21898597 313.65674372 -238.24671549 302.58118788 -238.30175781 291.50561523 C-238.34183733 283.43694662 -238.36748262 275.36837787 -238.37635398 267.29961246 C-238.38153329 263.03387541 -238.39356011 258.76842384 -238.42292023 254.50277901 C-238.45042463 250.473433 -238.45837578 246.4444853 -238.45243073 242.41505432 C-238.45351555 240.94990803 -238.46125836 239.48474596 -238.4768219 238.01968193 C-238.7426759 211.66165337 -228.48609938 187.8440511 -210.5859375 168.59326172 C-191.31156404 149.22987484 -165.86710043 139.96703145 -138.85546875 139.82421875 C-137.10741027 139.80098781 -135.3593634 139.77686923 -133.61132812 139.75195312 C-130.91797439 139.71723933 -128.2250418 139.6876898 -125.53149414 139.67407227 C-95.70805898 139.49472882 -63.32608527 132.03375238 -41.33642578 110.36035156 C-40.80388184 109.81088867 -40.27133789 109.26142578 -39.72265625 108.6953125 C-37 106 -37 106 -35 106 C-34.75507812 105.43152344 -34.51015625 104.86304688 -34.2578125 104.27734375 C-32.78188724 101.60509397 -30.99789135 99.75566127 -28.875 97.5625 C-3.78961415 70.02878049 -1.54601477 35.55833972 0 0 Z " fill="#E78E32" transform="translate(679,894)"/>
<path d="M0 0 C26.07 0 52.14 0 79 0 C79.03738281 8.94480469 79.07476563 17.88960937 79.11328125 27.10546875 C79.14743024 33.51180227 79.18342606 39.91810469 79.22207737 46.32441044 C79.27183246 54.61168342 79.31730881 62.89890537 79.34643555 71.1862793 C79.36952014 77.75050659 79.40303324 84.31458682 79.44870156 90.87869722 C79.47249395 94.34942744 79.49131368 97.82001328 79.49761391 101.29082298 C79.50486997 105.17996401 79.53542517 109.0687457 79.56762695 112.95776367 C79.56619186 114.08921814 79.56475677 115.22067261 79.5632782 116.38641357 C79.70997541 128.99972264 81.73258432 140.01405452 90.3828125 149.51953125 C97.95734223 156.08280178 111.45488798 157.62598225 121.10546875 157.26953125 C127.16540546 156.70524565 133.21356483 155.92881172 139 154 C138.89600136 152.97920601 138.89600136 152.97920601 138.78990173 151.93778992 C137.88829475 141.9259984 137.8207603 131.94653062 137.77020454 121.90061378 C137.75352198 118.69570829 137.73027335 115.49090764 137.70530701 112.28605652 C137.63531218 103.18140087 137.5749889 94.07670093 137.52319336 84.97192383 C137.91704852 45.06064528 137.91704852 45.06064528 133.20387268 5.54621887 C133 3 133 3 135 0 C137.57318919 -0.28654687 139.90497099 -0.37852887 142.47900391 -0.34057617 C143.6352401 -0.34123329 143.6352401 -0.34123329 144.81483459 -0.34190369 C147.36899937 -0.3398095 149.92251205 -0.31644941 152.4765625 -0.29296875 C154.24489992 -0.28737502 156.01324197 -0.28310387 157.78158569 -0.28010559 C162.44076322 -0.26863921 167.09966114 -0.23915675 171.75872803 -0.20599365 C176.51098854 -0.1753313 181.26329413 -0.16160847 186.015625 -0.14648438 C195.34387299 -0.11428866 204.67191327 -0.06307078 214 0 C214.00496522 1.16091014 214.00496522 1.16091014 214.01003075 2.34527302 C214.09177904 21.3067571 214.18403308 40.26816456 214.28752708 59.22954273 C214.337334 68.3996755 214.38377612 77.56980073 214.421875 86.73999023 C214.45514837 94.74653995 214.49516452 102.75302495 214.54279006 110.75950259 C214.56771009 114.98630476 214.58958605 119.21306597 214.60334396 123.43992043 C214.67347498 144.18127625 215.32378744 164.67418279 217.32288742 185.33745766 C217.42333988 186.42164671 217.52379234 187.50583576 217.62728882 188.62287903 C217.76987908 190.09673679 217.76987908 190.09673679 217.91534996 191.60036945 C218 194 218 194 217 196 C214.95654297 196.95800781 214.95654297 196.95800781 212.2421875 197.953125 C210.73253418 198.50673706 210.73253418 198.50673706 209.19238281 199.0715332 C208.09764648 199.46042725 207.00291016 199.84932129 205.875 200.25 C204.74932617 200.65114014 203.62365234 201.05228027 202.46386719 201.46557617 C156.86675766 217.39136583 97.01459509 227.70282006 51.51538086 206.09838867 C45.05311376 202.87674617 38.74222771 199.39901655 33 195 C32.26652344 194.44183594 31.53304687 193.88367187 30.77734375 193.30859375 C12.90101475 178.62118107 5.78928387 156.00597728 3.40600586 133.77807617 C2.70457401 126.29860776 2.68611487 118.80591804 2.66447449 111.29908752 C2.65598692 108.4427153 2.63530622 105.58663396 2.61193848 102.73034668 C2.56427834 96.65360941 2.53105608 90.5768418 2.5 84.5 C2.48588609 50.49956246 2.48588609 50.49956246 0.26586914 16.59301758 C-0.0456631 13.55464854 -0.34550399 10.51593026 -0.62695312 7.47460938 C-0.72206177 6.47796265 -0.81717041 5.48131592 -0.91516113 4.45446777 C-1 2 -1 2 0 0 Z " fill="#E88E33" transform="translate(826,1060)"/>
<path d="M0 0 C1.56159885 1.50035968 3.10438516 3.02061782 4.625 4.5625 C5.32109375 5.24828125 6.0171875 5.9340625 6.734375 6.640625 C28.70519523 29.63334385 29.11086217 60.57568903 28.92918181 90.44694805 C28.91013011 94.12104738 28.90864258 97.79515821 28.90510559 101.46929932 C28.89586722 108.39252477 28.87136766 115.31560415 28.84105712 122.23876595 C28.80090435 131.6182389 28.78499172 140.99775321 28.76755047 150.37729073 C28.73953814 165.10580274 28.6797151 179.83400685 28.625 194.5625 C3.545 194.5625 -21.535 194.5625 -47.375 194.5625 C-47.41367188 180.82044922 -47.41367188 180.82044922 -47.453125 166.80078125 C-47.47830489 160.98109869 -47.50448509 155.1614488 -47.53515625 149.34179688 C-47.58360534 140.11385356 -47.62808452 130.88601887 -47.64599609 121.65795898 C-47.65906319 114.93549062 -47.68615553 108.21324469 -47.72961307 101.49090165 C-47.7521152 97.93629081 -47.76791752 94.38195315 -47.76688385 90.82726479 C-47.76598992 86.8445754 -47.79642949 82.86268266 -47.82910156 78.88012695 C-47.8240712 77.72062027 -47.81904083 76.56111359 -47.81385803 75.36647034 C-47.94281857 65.13980188 -49.79341793 54.27892293 -56.55078125 46.2109375 C-66.71754473 37.02384074 -80.26372765 37.01238232 -93.13769531 37.43554688 C-98.2788974 37.72727812 -103.32606542 38.56341754 -108.375 39.5625 C-108.23325914 40.11678114 -108.09151829 40.67106228 -107.94548225 41.24213982 C-106.19242151 48.86048306 -106.10550477 56.21715884 -106.14794922 64.00830078 C-106.14851448 65.43832898 -106.14819453 66.86835776 -106.14706421 68.29838562 C-106.14649418 72.15102822 -106.15819135 76.00354437 -106.17221212 79.85615778 C-106.18477825 83.89334618 -106.1858946 87.93053798 -106.18826294 91.96774292 C-106.19446051 99.59957857 -106.21084784 107.23135641 -106.23096192 114.86316669 C-106.25757174 125.18534471 -106.26830749 135.50753872 -106.27996635 145.82974243 C-106.2987298 162.07403819 -106.3385869 178.318212 -106.375 194.5625 C-131.455 194.5625 -156.535 194.5625 -182.375 194.5625 C-182.42398437 183.21875 -182.47296875 171.875 -182.5234375 160.1875 C-182.558863 152.95962821 -182.5947684 145.73176395 -182.6328125 138.50390625 C-182.69298196 127.05584507 -182.75130787 115.60779784 -182.796875 104.15966797 C-182.83008633 95.81804425 -182.87007173 87.47648344 -182.91779006 79.13492966 C-182.94276957 74.72881158 -182.96463038 70.32273367 -182.97834396 65.91656494 C-182.89066182 36.38947488 -182.89066182 36.38947488 -185.76819992 7.0395813 C-185.88669926 6.23833832 -186.00519859 5.43709534 -186.12728882 4.61157227 C-186.24555212 3.90323746 -186.36381542 3.19490265 -186.48566246 2.46510315 C-186.375 0.5625 -186.375 0.5625 -185.03338051 -1.12359619 C-182.92992714 -2.79012289 -180.91030317 -3.57366147 -178.38671875 -4.48828125 C-176.88008667 -5.03693848 -176.88008667 -5.03693848 -175.34301758 -5.59667969 C-173.71916138 -6.16757324 -173.71916138 -6.16757324 -172.0625 -6.75 C-170.93674561 -7.14735352 -169.81099121 -7.54470703 -168.65112305 -7.95410156 C-152.9242584 -13.41796761 -137.29537265 -17.48346455 -120.875 -20.25 C-119.64692627 -20.4572168 -118.41885254 -20.66443359 -117.15356445 -20.87792969 C-79.60899569 -26.88020219 -30.30302192 -26.54989535 0 0 Z " fill="#E88E33" transform="translate(1276.375,1077.4375)"/>
<path d="M0 0 C18.7459955 18.47867293 23.01677199 43.39103322 23.21446228 68.75236511 C23.21952223 69.56690847 23.22458218 70.38145184 23.22979546 71.22067833 C23.24647709 73.82148543 23.26973402 76.42216328 23.29469299 79.02290344 C23.36463046 86.41420763 23.42453307 93.80557185 23.47680664 101.19702148 C23.64721729 124.67858664 24.10878648 148.01088146 26.32223511 171.40585327 C26.42271149 172.49097198 26.52318787 173.5760907 26.62670898 174.6940918 C26.76942482 176.15252754 26.76942482 176.15252754 26.9150238 177.64042664 C27 180 27 180 26 182 C23.78881836 182.88208008 23.78881836 182.88208008 20.83984375 183.76953125 C19.74857178 184.09864502 18.6572998 184.42775879 17.53295898 184.7668457 C15.75320679 185.28444458 15.75320679 185.28444458 13.9375 185.8125 C12.71683838 186.16852295 11.49617676 186.5245459 10.23852539 186.89135742 C-27.0473014 197.54755544 -68.41743761 202.67533883 -107 196 C-108.16837402 195.79866455 -108.16837402 195.79866455 -109.36035156 195.59326172 C-130.3905193 191.82386087 -151.60221311 186.07722087 -165.10546875 168.21484375 C-175.72574392 151.38997285 -176.97110023 130.13133151 -173 111 C-168.67323281 94.59811267 -158.37730668 83.95015387 -144.19921875 75.2890625 C-132.33698208 68.82471776 -118.33492158 65.63362287 -105 64 C-104.15695312 63.88914062 -103.31390625 63.77828125 -102.4453125 63.6640625 C-85.02431004 61.79572311 -67.32341603 62.71200166 -50 65 C-50.42648884 62.62255155 -50.86577233 60.24865749 -51.3125 57.875 C-51.48942383 56.87726563 -51.48942383 56.87726563 -51.66992188 55.859375 C-53.02361441 48.77852174 -55.42091997 43.62944939 -61 39 C-72.37843554 31.88076185 -84.38557752 31.61724691 -97.5 31.6875 C-98.20487549 31.68932281 -98.90975098 31.69114563 -99.63598633 31.69302368 C-116.86313472 31.76791796 -135.28593072 33.14296536 -151 41 C-152.98 41 -154.96 41 -157 41 C-157 22.19 -157 3.38 -157 -16 C-150.24422738 -18.25192421 -144.33946327 -19.89162054 -137.4375 -21.0625 C-135.94355713 -21.31628418 -135.94355713 -21.31628418 -134.41943359 -21.57519531 C-91.84853411 -28.49371632 -34.25222168 -31.06066692 0 0 Z M-102.3125 116.5625 C-105.98512908 121.86740867 -105.55167182 127.78187048 -105 134 C-103.72536531 138.7683623 -101.8754803 141.33892304 -97.9375 144.3125 C-96.64454316 144.91857352 -95.32944046 145.47879891 -94 146 C-93.29875 146.29777344 -92.5975 146.59554688 -91.875 146.90234375 C-79.14405056 151.32961303 -61.96530035 150.38978273 -49 147 C-48.34 146.67 -47.68 146.34 -47 146 C-47.19916016 144.65035156 -47.19916016 144.65035156 -47.40234375 143.2734375 C-49.01352362 131.53652134 -49.59744037 119.83459861 -50 108 C-56.57305515 106.82216931 -63.08433693 106.78036749 -69.75 106.75 C-70.86632813 106.729375 -71.98265625 106.70875 -73.1328125 106.6875 C-84.14989663 106.6361383 -94.59638606 108.01221157 -102.3125 116.5625 Z " fill="#E88E33" transform="translate(1919,1079)"/>
<path d="M0 0 C1.55868988 1.50338153 3.10183793 3.02313408 4.625 4.5625 C5.56085938 5.44808594 5.56085938 5.44808594 6.515625 6.3515625 C22.92977043 23.13539589 25.8776831 48.85914187 26.00390625 71.10546875 C26.02015866 72.68371024 26.03734606 74.26194233 26.05540466 75.84016418 C26.10072041 79.97447198 26.13565782 84.10879481 26.16760254 88.2432251 C26.22594316 95.59324867 26.30107385 102.94312912 26.37890625 110.29296875 C26.38713032 111.08366823 26.39535439 111.87436771 26.40382767 112.68902779 C26.5131783 122.87374605 26.70345219 133.04794882 27.08984375 143.2265625 C27.12743301 144.22749435 27.16502228 145.22842621 27.20375061 146.25968933 C27.6562987 156.99568775 28.42810061 167.83674148 30.3125 178.42578125 C30.625 181.5625 30.625 181.5625 28.625 184.5625 C26.71508789 185.45043945 26.71508789 185.45043945 24.34765625 186.17578125 C23.00997192 186.58908691 23.00997192 186.58908691 21.64526367 187.01074219 C20.66920166 187.29594727 19.69313965 187.58115234 18.6875 187.875 C17.66696533 188.17696289 16.64643066 188.47892578 15.5949707 188.79003906 C-31.85162418 202.49898638 -97.83025211 211.63977009 -143.375 186.5625 C-157.10792665 178.95104784 -164.0618776 169.20640641 -169.48046875 154.578125 C-174.4619595 136.89734092 -172.93450941 115.31713834 -164.1875 99.125 C-155.61678367 85.69572474 -143.14859166 77.86915933 -128.375 72.5625 C-126.87646484 72.02302734 -126.87646484 72.02302734 -125.34765625 71.47265625 C-100.44176657 63.4725826 -73.01272159 64.17638583 -47.375 67.5625 C-48.37347258 58.05465662 -49.8477693 49.34124352 -56.625 42.1875 C-68.82042535 34.98111229 -80.90524075 34.17516493 -94.875 34.25 C-95.57987549 34.25182281 -96.28475098 34.25364563 -97.01098633 34.25552368 C-114.23813472 34.33041796 -132.66093072 35.70546536 -148.375 43.5625 C-150.355 43.5625 -152.335 43.5625 -154.375 43.5625 C-154.375 24.7525 -154.375 5.9425 -154.375 -13.4375 C-147.6423386 -15.68172047 -141.75281447 -17.32823751 -134.875 -18.5 C-133.38601196 -18.75378418 -133.38601196 -18.75378418 -131.86694336 -19.01269531 C-91.47936997 -25.57176614 -33.06829102 -29.06607728 0 0 Z M-97 115.8125 C-101.52581086 121.05291257 -102.94032118 126.51764134 -102.65625 133.39453125 C-101.99870683 138.46309315 -100.22547416 141.69224737 -96.6875 145.3125 C-88.65244477 151.38876067 -79.05240727 151.76242286 -69.375 151.8125 C-68.40949219 151.833125 -67.44398437 151.85375 -66.44921875 151.875 C-58.33466438 151.91799102 -52.70310716 150.48437088 -44.375 148.5625 C-45.365 136.0225 -46.355 123.4825 -47.375 110.5625 C-62.81765411 107.98872431 -83.52192932 106.32316623 -97 115.8125 Z " fill="#E88E33" transform="translate(1516.375,1076.4375)"/>
<path d="M0 0 C0 18.48 0 36.96 0 56 C-7.74552392 56 -7.74552392 56 -11.2890625 54.52734375 C-16.35532982 52.7066204 -21.02632983 52.50146442 -26.375 52.5625 C-27.29748535 52.56934814 -28.2199707 52.57619629 -29.17041016 52.58325195 C-36.05767097 52.74549817 -41.88711056 53.64455525 -48 57 C-48.6703125 57.33902344 -49.340625 57.67804688 -50.03125 58.02734375 C-55.40571234 61.22697069 -58.03580334 66.18833198 -60 72 C-60.66 75.63 -61.32 79.26 -62 83 C-46.49 83 -30.98 83 -15 83 C-15 102.47 -15 121.94 -15 142 C-30.84 142 -46.68 142 -63 142 C-63 192.49 -63 242.98 -63 295 C-88.08 295 -113.16 295 -139 295 C-139 244.51 -139 194.02 -139 142 C-150.55 142 -162.1 142 -174 142 C-174 122.53 -174 103.06 -174 83 C-162.12 83 -150.24 83 -138 83 C-138 78.71 -138 74.42 -138 70 C-137.54245695 66.86876962 -137.05678554 63.98344755 -136.3125 60.9375 C-136.13243408 60.1736499 -135.95236816 59.4097998 -135.7668457 58.62280273 C-130.55378263 37.47883269 -118.45750984 21.33164713 -100 10 C-72.42072944 -6.33227328 -30.15075823 -10.05025274 0 0 Z " fill="#E88E33" transform="translate(1742,977)"/>
<path d="M0 0 C0.18309851 13.58314273 0.34733828 27.16648169 0.5 40.75 C0.51187725 41.80600529 0.5237545 42.86201057 0.53599167 43.95001602 C1.02185451 87.69617744 1.08655678 131.43920584 1.0625 175.1875 C1.06186365 176.37898179 1.06186365 176.37898179 1.06121445 177.59453392 C1.05820328 183.13886931 1.05470328 188.68320425 1.05078125 194.22753906 C1.0502903 194.92394674 1.04979935 195.62035441 1.04929352 196.33786535 C1.03886687 210.55858606 1.01841796 224.77928483 1 239 C-31.34 239 -63.68 239 -97 239 C-97.16121214 200.81511414 -97.16121214 200.81511414 -97.1953125 184.73242188 C-97.21898597 173.65674372 -97.24671549 162.58118788 -97.30175781 151.50561523 C-97.34183733 143.43694662 -97.36748262 135.36837787 -97.37635398 127.29961246 C-97.38153329 123.03387541 -97.39356011 118.76842384 -97.42292023 114.50277901 C-97.45042463 110.473433 -97.45837578 106.4444853 -97.45243073 102.41505432 C-97.45351555 100.94990803 -97.46125836 99.48474596 -97.4768219 98.01968193 C-97.7426759 71.66165337 -87.48609938 47.8440511 -69.5859375 28.59326172 C-51.0719183 9.99374058 -26.11380625 -0.05498043 0 0 Z " fill="#E88E33" transform="translate(538,1034)"/>
<path d="M0 0 C4.98997628 3.10624101 9.17319631 6.71622832 13.4375 10.75 C14.10563721 11.3797876 14.77377441 12.0095752 15.4621582 12.65844727 C19.92770813 16.90277314 24.13232611 21.1993346 28 26 C28.88479526 27.05000312 29.7702805 28.099425 30.65625 29.1484375 C53.38229094 56.41296847 69.14498165 89.34424353 76.25 124.125 C76.40114258 124.86298828 76.55228516 125.60097656 76.70800781 126.36132812 C80.80607444 147.87849059 80 167.74522272 80 190 C47.66 190 15.32 190 -18 190 C-18.99 171.685 -18.99 171.685 -20 153 C-23.71766486 129.45478919 -32.39738169 109.11410617 -48 91 C-48.58910156 90.26652344 -49.17820312 89.53304688 -49.78515625 88.77734375 C-69.51242457 65.02923094 -100.25756149 53.87059131 -130 50 C-130 49.67 -130 49.34 -130 49 C-129.30664551 48.92483154 -128.61329102 48.84966309 -127.89892578 48.7722168 C-121.01378063 48.01927854 -114.13511617 47.22187322 -107.25927734 46.38818359 C-104.64950027 46.07735621 -102.03949067 45.79379819 -99.42578125 45.51953125 C-63.43458954 41.1737376 -27.80582122 22.58576928 0 0 Z " fill="#93BD01" transform="translate(697,1083)"/>
<path d="M0 0 C1.24523437 0.00902344 2.49046875 0.01804687 3.7734375 0.02734375 C5.18496094 0.04474609 5.18496094 0.04474609 6.625 0.0625 C6.70188183 7.45989218 6.75394407 14.8571791 6.78979492 22.25488281 C6.80476106 24.7646876 6.82514122 27.27446679 6.85131836 29.78417969 C7.17613072 61.755906 1.4237677 88.74403715 -20.9765625 112.63720703 C-34.54230814 126.46346804 -51.88104864 135.06881722 -70.5625 139.4375 C-71.61183716 139.68935059 -71.61183716 139.68935059 -72.68237305 139.94628906 C-77.05301214 140.8826018 -81.18870537 141.13649351 -85.66137695 141.10400391 C-86.73378128 141.09801178 -87.80618561 141.09201965 -88.91108704 141.08584595 C-89.72417831 141.07814178 -90.53726959 141.07043762 -91.375 141.0625 C-91.46872113 133.79395868 -91.53927185 126.52555288 -91.58224869 119.25652409 C-91.60290173 115.87920981 -91.63079576 112.50231632 -91.67675781 109.12524414 C-92.04295717 80.07163297 -92.04295717 80.07163297 -87.375 66.0625 C-86.95105957 64.7794397 -86.95105957 64.7794397 -86.51855469 63.47045898 C-81.53464772 49.82988421 -73.33983327 38.50271981 -63.375 28.0625 C-62.84777344 27.46050781 -62.32054687 26.85851562 -61.77734375 26.23828125 C-46.93985803 9.95878925 -21.67867759 -0.20451583 0 0 Z " fill="#93BE01" transform="translate(532.375,895.9375)"/>
<path d="M0 0 C5.92375637 3.50040149 9.5103371 9.90519202 11.82421875 16.265625 C14.71503465 27.66487067 13.44752655 39.64823413 7.4375 49.8125 C3.38792021 55.46567279 -3.06516275 59.84211874 -10 61 C-18.95249849 61.59683323 -27.20142981 62.04810672 -35 57 C-36.051875 56.34 -37.10375 55.68 -38.1875 55 C-44.70379854 49.15717366 -47.63680085 39.78584688 -48.16796875 31.32421875 C-48.24556794 20.84832874 -46.70898577 12.38979325 -40 4 C-28.75877992 -5.75311581 -13.03401419 -7.25238922 0 0 Z M-30.75 10.25 C-35.84746697 16.4802374 -37.17696569 23.05736338 -37 31 C-36.0605643 37.35865979 -34.91472013 43.51893165 -30 48 C-24.71113175 51.70220778 -20.43257699 52.43610691 -14 52 C-7.51293685 49.87492759 -3.51649418 46.97041458 -0.390625 40.84765625 C1.27524806 36.78908017 1.53888933 33.0406437 1.5 28.6875 C1.49141968 27.57145386 1.49141968 27.57145386 1.48266602 26.43286133 C1.28002783 20.15790038 0.09758131 14.94570912 -4 10 C-12.47650288 3.10008956 -22.38320716 3.40444222 -30.75 10.25 Z " fill="#5A3D1F" transform="translate(485,1320)"/>
<path d="M0 0 C3.3 0 6.6 0 10 0 C12.56269681 7.25712641 14.43691093 14.57170776 16.1875 22.0625 C16.46013672 23.21427734 16.73277344 24.36605469 17.01367188 25.55273438 C17.67943999 28.36764869 18.34145913 31.18338779 19 34 C19.2266333 33.28980713 19.4532666 32.57961426 19.68676758 31.84790039 C20.7280877 28.58591136 21.77028788 25.32420414 22.8125 22.0625 C23.34713867 20.38704102 23.34713867 20.38704102 23.89257812 18.67773438 C25.88727534 12.4374431 27.91248209 6.20987189 30 0 C32.64 0 35.28 0 38 0 C42.95 16.335 42.95 16.335 48 33 C50.51903136 25.46739088 50.51903136 25.46739088 52.60546875 17.87109375 C52.86650391 16.81728516 53.12753906 15.76347656 53.39648438 14.67773438 C53.65751953 13.60845703 53.91855469 12.53917969 54.1875 11.4375 C54.46013672 10.33341797 54.73277344 9.22933594 55.01367188 8.09179688 C55.67903342 5.39533165 56.339974 2.69777619 57 0 C60.63 0 64.26 0 68 0 C67.39544499 5.98108136 66.1892634 11.50602968 64.53125 17.27734375 C64.29088013 18.12929825 64.05051025 18.98125275 63.80285645 19.85902405 C63.29794491 21.64386503 62.7902147 23.42791086 62.27978516 25.21118164 C61.49585734 27.95198373 60.72189214 30.69545943 59.94921875 33.43945312 C59.45630903 35.17724791 58.96283967 36.91488408 58.46875 38.65234375 C58.23643677 39.47516342 58.00412354 40.29798309 57.76477051 41.14573669 C56.1158216 46.8841784 56.1158216 46.8841784 55 48 C52.98035801 48.07244053 50.95832876 48.08377188 48.9375 48.0625 C47.28041016 48.04896484 47.28041016 48.04896484 45.58984375 48.03515625 C44.73519531 48.02355469 43.88054687 48.01195312 43 48 C40.71102589 42.06104015 38.70269627 36.07663097 36.8125 30 C36.53986328 29.12988281 36.26722656 28.25976562 35.98632812 27.36328125 C35.32222219 25.24280267 34.66015226 23.12171208 34 21 C30.21452176 29.78273848 27.60021622 38.81399023 25 48 C20.71 48 16.42 48 12 48 C8.58796937 36.46595985 5.17982557 24.93035885 2.0625 13.3125 C1.85149658 12.54252686 1.64049316 11.77255371 1.4230957 10.97924805 C0.39886754 7.1017818 0 4.07049517 0 0 Z " fill="#5A3D1F" transform="translate(1315,1332)"/>
<path d="M0 0 C6.65217948 3.87035897 10.95768822 9.20181201 13 16.65625 C14.55251472 24.97329315 13.5302961 32.52321606 9.4375 40 C5.45168936 44.73209008 1.4533066 47.45203025 -4.5625 49 C-9.24718983 49.25078639 -13.8662865 49.0886078 -18.5625 49 C-18.8925 55.27 -19.2225 61.54 -19.5625 68 C-23.1925 68 -26.8225 68 -30.5625 68 C-30.5625 46.22 -30.5625 24.44 -30.5625 2 C-20.66294663 -0.96986601 -10.21893619 -3.06767285 0 0 Z M-19.5625 9 C-19.5625 19.23 -19.5625 29.46 -19.5625 40 C-14.67567997 41.62894001 -10.78709932 41.37360657 -5.875 39.875 C-1.18926954 37.22269974 0.75752293 34.03993122 2.4375 29 C3.01793451 22.61522044 2.67508956 17.58205096 -0.5625 12 C-4.05715789 8.09420588 -7.28276891 7.42842135 -12.28125 6.8828125 C-15.10536553 6.90465313 -15.10536553 6.90465313 -19.5625 9 Z " fill="#5A3D1F" transform="translate(1628.5625,1332)"/>
<path d="M0 0 C6.65217948 3.87035897 10.95768822 9.20181201 13 16.65625 C14.55251472 24.97329315 13.5302961 32.52321606 9.4375 40 C5.45168936 44.73209008 1.4533066 47.45203025 -4.5625 49 C-9.24718983 49.25078639 -13.8662865 49.0886078 -18.5625 49 C-18.8925 55.27 -19.2225 61.54 -19.5625 68 C-23.1925 68 -26.8225 68 -30.5625 68 C-30.5625 46.22 -30.5625 24.44 -30.5625 2 C-20.66294663 -0.96986601 -10.21893619 -3.06767285 0 0 Z M-19.5625 9 C-19.5625 19.23 -19.5625 29.46 -19.5625 40 C-14.67567997 41.62894001 -10.78709932 41.37360657 -5.875 39.875 C-1.18926954 37.22269974 0.75752293 34.03993122 2.4375 29 C3.01793451 22.61522044 2.67508956 17.58205096 -0.5625 12 C-4.05715789 8.09420588 -7.28276891 7.42842135 -12.28125 6.8828125 C-15.10536553 6.90465313 -15.10536553 6.90465313 -19.5625 9 Z " fill="#5A3D1F" transform="translate(549.5625,1332)"/>
<path d="M0 0 C4.93974383 2.99762232 7.53317781 6.90931208 9.375 12.3125 C9.68034051 14.55343385 9.90680681 16.80622497 10.0625 19.0625 C10.14886719 20.21234375 10.23523437 21.3621875 10.32421875 22.546875 C10.34097656 23.45953125 10.35773438 24.3721875 10.375 25.3125 C9.375 26.3125 9.375 26.3125 6.23217773 26.42602539 C4.84097303 26.42586633 3.44976239 26.42017506 2.05859375 26.41015625 C1.32753922 26.4087413 0.59648468 26.40732635 -0.15672302 26.40586853 C-2.50035632 26.40025408 -4.84389539 26.38769922 -7.1875 26.375 C-8.77278508 26.36998686 -10.35807166 26.36542363 -11.94335938 26.36132812 C-15.8372761 26.35027997 -19.73112205 26.33300572 -23.625 26.3125 C-23.01711621 27.77288769 -22.3993226 29.22915323 -21.77734375 30.68359375 C-21.26288696 31.90067017 -21.26288696 31.90067017 -20.73803711 33.14233398 C-19.69245006 35.52345099 -19.69245006 35.52345099 -17.1875 37.375 C-9.55902748 39.38249277 -1.33492445 38.74690455 6.375 37.3125 C6.375 40.2825 6.375 43.2525 6.375 46.3125 C-2.83445189 49.09271189 -12.42756085 49.48030683 -21.625 46.3125 C-27.13745532 43.34425483 -31.37070208 39.42631652 -33.7421875 33.5390625 C-36.00477807 25.26959433 -35.57875678 16.23762101 -31.9609375 8.4375 C-25.31956161 -2.12655989 -11.20559815 -5.21239688 0 0 Z M-18.625 8.3125 C-22.4587769 12.1462769 -22.67594874 13.61819245 -23.625 19.3125 C-16.035 19.3125 -8.445 19.3125 -0.625 19.3125 C-1.00876904 12.67037134 -1.00876904 12.67037134 -3.75 9.4375 C-8.55262678 5.88773238 -13.41177537 5.21274482 -18.625 8.3125 Z " fill="#5A3D1F" transform="translate(1835.625,1332.6875)"/>
<path d="M0 0 C4.93974383 2.99762232 7.53317781 6.90931208 9.375 12.3125 C9.68034051 14.55343385 9.90680681 16.80622497 10.0625 19.0625 C10.14886719 20.21234375 10.23523437 21.3621875 10.32421875 22.546875 C10.34097656 23.45953125 10.35773438 24.3721875 10.375 25.3125 C9.375 26.3125 9.375 26.3125 6.23217773 26.42602539 C4.84097303 26.42586633 3.44976239 26.42017506 2.05859375 26.41015625 C1.32753922 26.4087413 0.59648468 26.40732635 -0.15672302 26.40586853 C-2.50035632 26.40025408 -4.84389539 26.38769922 -7.1875 26.375 C-8.77278508 26.36998686 -10.35807166 26.36542363 -11.94335938 26.36132812 C-15.8372761 26.35027997 -19.73112205 26.33300572 -23.625 26.3125 C-23.01711621 27.77288769 -22.3993226 29.22915323 -21.77734375 30.68359375 C-21.26288696 31.90067017 -21.26288696 31.90067017 -20.73803711 33.14233398 C-19.69245006 35.52345099 -19.69245006 35.52345099 -17.1875 37.375 C-9.55902748 39.38249277 -1.33492445 38.74690455 6.375 37.3125 C6.375 40.2825 6.375 43.2525 6.375 46.3125 C-2.83445189 49.09271189 -12.42756085 49.48030683 -21.625 46.3125 C-27.13745532 43.34425483 -31.37070208 39.42631652 -33.7421875 33.5390625 C-36.00477807 25.26959433 -35.57875678 16.23762101 -31.9609375 8.4375 C-25.31956161 -2.12655989 -11.20559815 -5.21239688 0 0 Z M-18.625 8.3125 C-22.4587769 12.1462769 -22.67594874 13.61819245 -23.625 19.3125 C-16.035 19.3125 -8.445 19.3125 -0.625 19.3125 C-1.00876904 12.67037134 -1.00876904 12.67037134 -3.75 9.4375 C-8.55262678 5.88773238 -13.41177537 5.21274482 -18.625 8.3125 Z " fill="#5A3D1F" transform="translate(1535.625,1332.6875)"/>
<path d="M0 0 C4.93974383 2.99762232 7.53317781 6.90931208 9.375 12.3125 C9.68034051 14.55343385 9.90680681 16.80622497 10.0625 19.0625 C10.14886719 20.21234375 10.23523437 21.3621875 10.32421875 22.546875 C10.34097656 23.45953125 10.35773438 24.3721875 10.375 25.3125 C9.375 26.3125 9.375 26.3125 6.23217773 26.42602539 C4.84097303 26.42586633 3.44976239 26.42017506 2.05859375 26.41015625 C1.32753922 26.4087413 0.59648468 26.40732635 -0.15672302 26.40586853 C-2.50035632 26.40025408 -4.84389539 26.38769922 -7.1875 26.375 C-8.77278508 26.36998686 -10.35807166 26.36542363 -11.94335938 26.36132812 C-15.8372761 26.35027997 -19.73112205 26.33300572 -23.625 26.3125 C-23.01711621 27.77288769 -22.3993226 29.22915323 -21.77734375 30.68359375 C-21.26288696 31.90067017 -21.26288696 31.90067017 -20.73803711 33.14233398 C-19.69245006 35.52345099 -19.69245006 35.52345099 -17.1875 37.375 C-9.55902748 39.38249277 -1.33492445 38.74690455 6.375 37.3125 C6.375 40.2825 6.375 43.2525 6.375 46.3125 C-2.83445189 49.09271189 -12.42756085 49.48030683 -21.625 46.3125 C-27.13745532 43.34425483 -31.37070208 39.42631652 -33.7421875 33.5390625 C-36.00477807 25.26959433 -35.57875678 16.23762101 -31.9609375 8.4375 C-25.31956161 -2.12655989 -11.20559815 -5.21239688 0 0 Z M-18.625 8.3125 C-22.4587769 12.1462769 -22.67594874 13.61819245 -23.625 19.3125 C-16.035 19.3125 -8.445 19.3125 -0.625 19.3125 C-1.00876904 12.67037134 -1.00876904 12.67037134 -3.75 9.4375 C-8.55262678 5.88773238 -13.41177537 5.21274482 -18.625 8.3125 Z " fill="#5A3D1F" transform="translate(1055.625,1332.6875)"/>
<path d="M0 0 C4.93974383 2.99762232 7.53317781 6.90931208 9.375 12.3125 C9.68034051 14.55343385 9.90680681 16.80622497 10.0625 19.0625 C10.14886719 20.21234375 10.23523438 21.3621875 10.32421875 22.546875 C10.34097656 23.45953125 10.35773437 24.3721875 10.375 25.3125 C9.375 26.3125 9.375 26.3125 6.23217773 26.42602539 C4.84097303 26.42586633 3.44976239 26.42017506 2.05859375 26.41015625 C1.32753922 26.4087413 0.59648468 26.40732635 -0.15672302 26.40586853 C-2.50035632 26.40025408 -4.84389539 26.38769922 -7.1875 26.375 C-8.77278508 26.36998686 -10.35807166 26.36542363 -11.94335938 26.36132812 C-15.8372761 26.35027997 -19.73112205 26.33300572 -23.625 26.3125 C-23.01711621 27.77288769 -22.3993226 29.22915323 -21.77734375 30.68359375 C-21.26288696 31.90067017 -21.26288696 31.90067017 -20.73803711 33.14233398 C-19.69245006 35.52345099 -19.69245006 35.52345099 -17.1875 37.375 C-9.55902748 39.38249277 -1.33492445 38.74690455 6.375 37.3125 C6.375 40.2825 6.375 43.2525 6.375 46.3125 C-2.83445189 49.09271189 -12.42756085 49.48030683 -21.625 46.3125 C-27.13745532 43.34425483 -31.37070208 39.42631652 -33.7421875 33.5390625 C-36.00477807 25.26959433 -35.57875678 16.23762101 -31.9609375 8.4375 C-25.31956161 -2.12655989 -11.20559815 -5.21239688 0 0 Z M-18.625 8.3125 C-22.4587769 12.1462769 -22.67594874 13.61819245 -23.625 19.3125 C-16.035 19.3125 -8.445 19.3125 -0.625 19.3125 C-1.00876904 12.67037134 -1.00876904 12.67037134 -3.75 9.4375 C-8.55262678 5.88773238 -13.41177537 5.21274482 -18.625 8.3125 Z " fill="#5A3D1F" transform="translate(614.625,1332.6875)"/>
<path d="M0 0 C0.76441406 -0.02449219 1.52882813 -0.04898437 2.31640625 -0.07421875 C7.99584542 -0.10314628 12.41987819 1.116071 17.125 4.375 C21.73570639 10.04971556 22.26673268 14.66563648 22.44140625 21.765625 C22.46218735 22.47023865 22.48296844 23.17485229 22.50437927 23.90081787 C22.56953837 26.14211681 22.62860248 28.38352864 22.6875 30.625 C22.73071726 32.14844897 22.77433257 33.67188671 22.81835938 35.1953125 C22.92518491 38.92175591 23.02654639 42.64832494 23.125 46.375 C15.85304214 49.53969248 10.14837099 50.59044132 2.3125 50.6875 C1.15911133 50.73100586 1.15911133 50.73100586 -0.01757812 50.77539062 C-6.47808191 50.84626535 -11.61397685 49.21385635 -16.53833008 44.92700195 C-19.52555258 41.45855018 -19.20683048 37.22008852 -19.15625 32.8828125 C-18.73960293 29.16770942 -17.35244601 27.12027801 -14.875 24.375 C-9.31591196 20.34466117 -4.31909211 20.23562438 2.375 20.3125 C3.12007812 20.31701172 3.86515625 20.32152344 4.6328125 20.32617188 C6.4635764 20.33790754 8.29429873 20.3558415 10.125 20.375 C10.33161049 16.04209328 10.33161049 16.04209328 8.875 12.0625 C6.06081115 9.3488179 3.89349376 9.42205064 0.0625 9.1875 C-5.02562982 9.4297919 -9.88993506 10.36536659 -14.875 11.375 C-14.875 8.405 -14.875 5.435 -14.875 2.375 C-9.80376573 0.3497467 -5.37591858 0.00897482 0 0 Z M-7.875 30.375 C-9.29541821 33.21583641 -9.18952272 35.22977278 -8.875 38.375 C-7.11652913 40.69869365 -5.75796562 42.00963492 -3.0625 43.125 C2.76380125 43.790863 6.44399497 43.26866834 12.125 41.375 C11.63 34.94 11.63 34.94 11.125 28.375 C3.80612783 26.54528196 -1.29822502 26.88528267 -7.875 30.375 Z " fill="#5A3D1F" transform="translate(1415.875,1330.625)"/>
<path d="M0 0 C5.41866008 3.30434282 8.67092958 8.2375996 10.375 14.3125 C11.85451028 23.00765468 11.85657844 30.70385433 7.625 38.5625 C3.21910603 43.94748152 -0.72345954 47.00358715 -7.625 48.3125 C-14.99121845 48.90654988 -21.12992437 47.48721372 -27.4375 43.5625 C-34.21851282 36.58774395 -34.9959012 29.30569526 -34.8984375 19.9296875 C-34.37396002 12.99159965 -32.39263136 7.5403049 -27.1875 2.8125 C-19.82752066 -3.06182226 -8.51778067 -3.9621315 0 0 Z M-19.625 9.3125 C-24.28175561 14.63450641 -23.95933083 20.04360833 -23.91015625 26.84375 C-23.52532469 31.52498873 -22.58126178 33.69929116 -19.625 37.3125 C-16.71511064 39.70276626 -13.37578687 39.79853095 -9.65625 39.6875 C-5.92727951 38.99907468 -4.08897363 37.06980382 -1.625 34.3125 C1.15608051 27.73903697 1.39354404 20.69354646 -0.875 13.9375 C-2.2586226 10.73030107 -3.34784158 8.81822144 -6.625 7.3125 C-11.79942659 5.9319282 -15.31122125 5.73822618 -19.625 9.3125 Z " fill="#5A3D1F" transform="translate(1737.625,1332.6875)"/>
<path d="M0 0 C5.41866008 3.30434282 8.67092958 8.2375996 10.375 14.3125 C11.85451028 23.00765468 11.85657844 30.70385433 7.625 38.5625 C3.21910603 43.94748152 -0.72345954 47.00358715 -7.625 48.3125 C-14.99121845 48.90654988 -21.12992437 47.48721372 -27.4375 43.5625 C-34.21851282 36.58774395 -34.9959012 29.30569526 -34.8984375 19.9296875 C-34.37396002 12.99159965 -32.39263136 7.5403049 -27.1875 2.8125 C-19.82752066 -3.06182226 -8.51778067 -3.9621315 0 0 Z M-19.625 9.3125 C-24.28175561 14.63450641 -23.95933083 20.04360833 -23.91015625 26.84375 C-23.52532469 31.52498873 -22.58126178 33.69929116 -19.625 37.3125 C-16.71511064 39.70276626 -13.37578687 39.79853095 -9.65625 39.6875 C-5.92727951 38.99907468 -4.08897363 37.06980382 -1.625 34.3125 C1.15608051 27.73903697 1.39354404 20.69354646 -0.875 13.9375 C-2.2586226 10.73030107 -3.34784158 8.81822144 -6.625 7.3125 C-11.79942659 5.9319282 -15.31122125 5.73822618 -19.625 9.3125 Z " fill="#5A3D1F" transform="translate(1202.625,1332.6875)"/>
<path d="M0 0 C5.41866008 3.30434282 8.67092958 8.2375996 10.375 14.3125 C11.85451028 23.00765468 11.85657844 30.70385433 7.625 38.5625 C3.21910603 43.94748152 -0.72345954 47.00358715 -7.625 48.3125 C-14.99121845 48.90654988 -21.12992437 47.48721372 -27.4375 43.5625 C-34.21851282 36.58774395 -34.9959012 29.30569526 -34.8984375 19.9296875 C-34.37396002 12.99159965 -32.39263136 7.5403049 -27.1875 2.8125 C-19.82752066 -3.06182226 -8.51778067 -3.9621315 0 0 Z M-19.625 9.3125 C-24.28175561 14.63450641 -23.95933083 20.04360833 -23.91015625 26.84375 C-23.52532469 31.52498873 -22.58126178 33.69929116 -19.625 37.3125 C-16.71511064 39.70276626 -13.37578687 39.79853095 -9.65625 39.6875 C-5.92727951 38.99907468 -4.08897363 37.06980382 -1.625 34.3125 C1.15608051 27.73903697 1.39354404 20.69354646 -0.875 13.9375 C-2.2586226 10.73030107 -3.34784158 8.81822144 -6.625 7.3125 C-11.79942659 5.9319282 -15.31122125 5.73822618 -19.625 9.3125 Z " fill="#5A3D1F" transform="translate(828.625,1332.6875)"/>
<path d="M0 0 C1.29550781 -0.00773437 2.59101562 -0.01546875 3.92578125 -0.0234375 C10.62949488 0.68661317 15.30484478 3.11581374 19.6875 8.375 C21.97993581 12.74038308 21.9480932 16.92155242 21.8828125 21.73828125 C21.8799826 22.53026413 21.87715271 23.32224701 21.87423706 24.13822937 C21.86308863 26.65480999 21.83799422 29.17102789 21.8125 31.6875 C21.80246329 33.39908338 21.79333864 35.11067237 21.78515625 36.82226562 C21.76316681 41.00664906 21.72867408 45.19076314 21.6875 49.375 C18.3875 49.375 15.0875 49.375 11.6875 49.375 C11.66768066 48.50286865 11.64786133 47.6307373 11.62744141 46.73217773 C11.54892564 43.46856807 11.46222031 40.20538246 11.37011719 36.94213867 C11.33204707 35.53499602 11.29715755 34.12776331 11.265625 32.72045898 C11.2194922 30.68701177 11.16158432 28.65417293 11.1015625 26.62109375 C11.0701416 25.40091553 11.0387207 24.1807373 11.00634766 22.92358398 C10.66734476 19.15068421 9.99017887 15.93231538 8.6875 12.375 C2.53090817 8.27060545 -0.31760373 9.57551037 -8.3125 10.375 C-8.6425 23.245 -8.9725 36.115 -9.3125 49.375 C-12.9425 49.375 -16.5725 49.375 -20.3125 49.375 C-20.3125 34.195 -20.3125 19.015 -20.3125 3.375 C-6.65204858 -0.04011286 -6.65204858 -0.04011286 0 0 Z " fill="#5A3D1F" transform="translate(666.3125,1330.625)"/>
<path d="M0 0 C3.63 0 7.26 0 11 0 C11.01458252 0.90242432 11.02916504 1.80484863 11.04418945 2.73461914 C11.10555577 6.11020007 11.17976329 9.48500696 11.26245117 12.86010742 C11.29552983 14.31572994 11.32361397 15.77147547 11.34643555 17.22729492 C11.38029921 19.33044436 11.4326236 21.43248375 11.48828125 23.53515625 C11.51446533 24.797229 11.54064941 26.05930176 11.56762695 27.35961914 C12.06748373 31.56818172 13.05112495 34.2525239 15 38 C20.45847555 41.13862344 25.45271378 40 32 40 C31.67 26.8 31.34 13.6 31 0 C34.63 0 38.26 0 42 0 C42.33 15.18 42.66 30.36 43 46 C30.19500883 49.49227032 30.19500883 49.49227032 23.25 49.375 C22.54746094 49.38660156 21.84492187 49.39820313 21.12109375 49.41015625 C14.77149436 49.37481525 10.1233091 47.79301657 5.1875 43.625 C1.02601554 38.63121865 0.68194015 33.96682526 0.5859375 27.63671875 C0.56657135 26.84473587 0.5472052 26.05275299 0.5272522 25.23677063 C0.46772768 22.72045481 0.42118042 20.20409256 0.375 17.6875 C0.33679519 15.9758921 0.29774201 14.26430291 0.2578125 12.55273438 C0.1620487 8.36864251 0.0779182 4.18446069 0 0 Z " fill="#5A3D1F" transform="translate(860,1332)"/>
<path d="M0 0 C0.75539063 -0.01224609 1.51078125 -0.02449219 2.2890625 -0.03710938 C6.52847819 -0.04822672 9.75480179 0.23698178 13.625 2.1875 C13.625 5.1575 13.625 8.1275 13.625 11.1875 C12.98433594 11.043125 12.34367187 10.89875 11.68359375 10.75 C4.1288069 9.12870446 -1.99258521 8.30655764 -9.375 11.1875 C-9.705 13.4975 -10.035 15.8075 -10.375 18.1875 C-9.14523437 18.42984375 -7.91546875 18.6721875 -6.6484375 18.921875 C-5.01548232 19.2597278 -3.38267754 19.59830808 -1.75 19.9375 C-0.53763672 20.17339844 -0.53763672 20.17339844 0.69921875 20.4140625 C6.88610781 21.72186019 11.40058742 23.44405782 15.5 28.5 C17.4323689 33.11621459 17.16876454 36.7279215 15.4375 41.375 C12.59120163 45.79166988 10.02608878 47.6958899 5.0625 49.4375 C-3.86929451 51.32141899 -12.59367934 50.2536931 -21.375 48.1875 C-21.375 44.8875 -21.375 41.5875 -21.375 38.1875 C-20.01375 38.5175 -18.6525 38.8475 -17.25 39.1875 C-10.01633008 40.6466523 -1.45734114 41.54828038 5.625 39.1875 C5.295 36.8775 4.965 34.5675 4.625 32.1875 C4.08085449 32.06221924 3.53670898 31.93693848 2.97607422 31.80786133 C0.47960712 31.22262744 -2.00986211 30.61158079 -4.5 30 C-5.3559375 29.80341797 -6.211875 29.60683594 -7.09375 29.40429688 C-12.73635999 27.99364438 -16.29188744 26.3814958 -20.375 22.1875 C-21.61850856 18.45697433 -21.89698871 15.06197957 -21.375 11.1875 C-16.77207218 1.98164435 -9.59090313 0.00810042 0 0 Z " fill="#5A3D1F" transform="translate(1135.375,1330.8125)"/>
<path d="M0 0 C0.75539063 -0.01224609 1.51078125 -0.02449219 2.2890625 -0.03710938 C6.52847819 -0.04822672 9.75480179 0.23698178 13.625 2.1875 C13.625 5.1575 13.625 8.1275 13.625 11.1875 C12.98433594 11.043125 12.34367188 10.89875 11.68359375 10.75 C4.1288069 9.12870446 -1.99258521 8.30655764 -9.375 11.1875 C-9.705 13.4975 -10.035 15.8075 -10.375 18.1875 C-9.14523437 18.42984375 -7.91546875 18.6721875 -6.6484375 18.921875 C-5.01548232 19.2597278 -3.38267754 19.59830808 -1.75 19.9375 C-0.53763672 20.17339844 -0.53763672 20.17339844 0.69921875 20.4140625 C6.88610781 21.72186019 11.40058742 23.44405782 15.5 28.5 C17.4323689 33.11621459 17.16876454 36.7279215 15.4375 41.375 C12.59120163 45.79166988 10.02608878 47.6958899 5.0625 49.4375 C-3.86929451 51.32141899 -12.59367934 50.2536931 -21.375 48.1875 C-21.375 44.8875 -21.375 41.5875 -21.375 38.1875 C-20.01375 38.5175 -18.6525 38.8475 -17.25 39.1875 C-10.01633008 40.6466523 -1.45734114 41.54828038 5.625 39.1875 C5.295 36.8775 4.965 34.5675 4.625 32.1875 C4.08085449 32.06221924 3.53670898 31.93693848 2.97607422 31.80786133 C0.47960712 31.22262744 -2.00986211 30.61158079 -4.5 30 C-5.3559375 29.80341797 -6.211875 29.60683594 -7.09375 29.40429688 C-12.73635999 27.99364438 -16.29188744 26.3814958 -20.375 22.1875 C-21.61850856 18.45697433 -21.89698871 15.06197957 -21.375 11.1875 C-16.77207218 1.98164435 -9.59090313 0.00810042 0 0 Z " fill="#5A3D1F" transform="translate(761.375,1330.8125)"/>
<path d="M0 0 C1.16789062 -0.00257812 2.33578125 -0.00515625 3.5390625 -0.0078125 C6.375 0.125 6.375 0.125 7.375 1.125 C7.51615161 3.79558851 7.41747107 6.44932238 7.375 9.125 C6.77171875 9.10179687 6.1684375 9.07859375 5.546875 9.0546875 C4.74765625 9.03664063 3.9484375 9.01859375 3.125 9 C1.94164062 8.96519531 1.94164062 8.96519531 0.734375 8.9296875 C-1.92867901 9.15013899 -3.43665359 9.58931831 -5.625 11.125 C-6.53109992 13.06481618 -6.53109992 13.06481618 -6.875 15.25 C-7.1225 16.52875 -7.37 17.8075 -7.625 19.125 C-3.335 19.125 0.955 19.125 5.375 19.125 C5.375 21.765 5.375 24.405 5.375 27.125 C1.085 27.125 -3.205 27.125 -7.625 27.125 C-7.625 40.325 -7.625 53.525 -7.625 67.125 C-11.255 67.125 -14.885 67.125 -18.625 67.125 C-18.625 53.925 -18.625 40.725 -18.625 27.125 C-20.935 27.125 -23.245 27.125 -25.625 27.125 C-25.625 24.485 -25.625 21.845 -25.625 19.125 C-23.315 19.125 -21.005 19.125 -18.625 19.125 C-18.59921875 18.54492188 -18.5734375 17.96484375 -18.546875 17.3671875 C-18.07778734 10.90657106 -16.58511231 6.72631082 -11.5625 2.3125 C-7.71366574 -0.04646293 -4.41411858 -0.0097874 0 0 Z " fill="#5A3D1F" transform="translate(1253.625,1312.875)"/>
<path d="M0 0 C3.3 0 6.6 0 10 0 C10 4.29 10 8.58 10 13 C14.29 13 18.58 13 23 13 C23 15.64 23 18.28 23 21 C18.71 21 14.42 21 10 21 C10.08679645 25.41763979 10.19367254 29.83320557 10.3125 34.25 C10.33505859 35.50425781 10.35761719 36.75851562 10.38085938 38.05078125 C10.4340332 39.85869141 10.4340332 39.85869141 10.48828125 41.703125 C10.51446533 42.81333008 10.54064941 43.92353516 10.56762695 45.06738281 C11.04280921 48.29035809 11.69593767 49.72320468 14 52 C16.96835863 52.48407934 16.96835863 52.48407934 20.1875 52.25 C21.27417969 52.21390625 22.36085938 52.1778125 23.48046875 52.140625 C24.31191406 52.09421875 25.14335938 52.0478125 26 52 C26 54.97 26 57.94 26 61 C18.7141211 62.82146972 11.66327557 62.82912216 5 59 C0.48358557 54.25197458 -0.12390448 51.48050216 -0.09765625 45.0234375 C-0.0962413 44.33819 -0.09482635 43.6529425 -0.09336853 42.94692993 C-0.08776675 40.75624239 -0.07521406 38.5656567 -0.0625 36.375 C-0.05748522 34.89062648 -0.05292228 33.40625135 -0.04882812 31.921875 C-0.03779677 28.28121685 -0.02053099 24.64061836 0 21 C-2.64 21 -5.28 21 -8 21 C-8 18.36 -8 15.72 -8 13 C-5.36 13 -2.72 13 0 13 C0 8.71 0 4.42 0 0 Z " fill="#5A3D1F" transform="translate(1924,1319)"/>
<path d="M0 0 C3.3 0 6.6 0 10 0 C10 4.29 10 8.58 10 13 C14.29 13 18.58 13 23 13 C23 15.64 23 18.28 23 21 C18.71 21 14.42 21 10 21 C10.08679645 25.41763979 10.19367254 29.83320557 10.3125 34.25 C10.33505859 35.50425781 10.35761719 36.75851562 10.38085938 38.05078125 C10.4340332 39.85869141 10.4340332 39.85869141 10.48828125 41.703125 C10.51446533 42.81333008 10.54064941 43.92353516 10.56762695 45.06738281 C11.04280921 48.29035809 11.69593767 49.72320468 14 52 C16.96835863 52.48407934 16.96835863 52.48407934 20.1875 52.25 C21.27417969 52.21390625 22.36085938 52.1778125 23.48046875 52.140625 C24.31191406 52.09421875 25.14335938 52.0478125 26 52 C26 54.97 26 57.94 26 61 C18.7141211 62.82146972 11.66327557 62.82912216 5 59 C0.48358557 54.25197458 -0.12390448 51.48050216 -0.09765625 45.0234375 C-0.0962413 44.33819 -0.09482635 43.6529425 -0.09336853 42.94692993 C-0.08776675 40.75624239 -0.07521406 38.5656567 -0.0625 36.375 C-0.05748522 34.89062648 -0.05292228 33.40625135 -0.04882812 31.921875 C-0.03779677 28.28121685 -0.02053099 24.64061836 0 21 C-2.64 21 -5.28 21 -8 21 C-8 18.36 -8 15.72 -8 13 C-5.36 13 -2.72 13 0 13 C0 8.71 0 4.42 0 0 Z " fill="#5A3D1F" transform="translate(1277,1319)"/>
<path d="M0 0 C0 2.97 0 5.94 0 9 C-0.845625 8.89300781 -1.69125 8.78601562 -2.5625 8.67578125 C-9.62877492 7.92900447 -14.66836558 7.59967781 -21 11 C-25.50381787 15.64910232 -25.34075771 20.88782657 -25.28125 27.046875 C-24.80085752 32.09099605 -22.55806569 34.58357665 -18.9375 37.875 C-12.90350147 40.18589305 -6.20506866 39.39389223 0 38 C0 40.97 0 43.94 0 47 C-7.80552701 50.28653769 -15.77182998 49.71989858 -23.67578125 47.02734375 C-29.37222828 44.50941842 -32.80698244 41.0834889 -35.4375 35.4375 C-38.13952811 27.71575588 -38.52878192 18.35245957 -35.1015625 10.77734375 C-31.88715626 5.59097907 -27.49637389 1.32973606 -21.5859375 -0.57421875 C-14.93074229 -1.67001373 -6.44167478 -2.14722493 0 0 Z " fill="#5A3D1F" transform="translate(1901,1332)"/>
<path d="M0 0 C0 2.97 0 5.94 0 9 C-0.845625 8.89300781 -1.69125 8.78601562 -2.5625 8.67578125 C-9.62877492 7.92900447 -14.66836558 7.59967781 -21 11 C-25.50381787 15.64910232 -25.34075771 20.88782657 -25.28125 27.046875 C-24.80085752 32.09099605 -22.55806569 34.58357665 -18.9375 37.875 C-12.90350147 40.18589305 -6.20506866 39.39389223 0 38 C0 40.97 0 43.94 0 47 C-7.80552701 50.28653769 -15.77182998 49.71989858 -23.67578125 47.02734375 C-29.37222828 44.50941842 -32.80698244 41.0834889 -35.4375 35.4375 C-38.13952811 27.71575588 -38.52878192 18.35245957 -35.1015625 10.77734375 C-31.88715626 5.59097907 -27.49637389 1.32973606 -21.5859375 -0.57421875 C-14.93074229 -1.67001373 -6.44167478 -2.14722493 0 0 Z " fill="#5A3D1F" transform="translate(1003,1332)"/>
<path d="M0 0 C3.63 0 7.26 0 11 0 C11.09911726 7.82873877 11.17158823 15.65710959 11.21972656 23.48632812 C11.23753649 26.14810247 11.26706285 28.80901028 11.30175781 31.47070312 C11.35045548 35.3034958 11.37301116 39.13570363 11.390625 42.96875 C11.41127014 44.15239136 11.43191528 45.33603271 11.45318604 46.55554199 C11.45506488 53.52405459 10.81947761 58.10610634 7 64 C1.18034236 68.72847183 -3.73206015 69.48263663 -11 69 C-12.32 68.67 -13.64 68.34 -15 68 C-15 65.03 -15 62.06 -15 59 C-13.86111328 59.05220703 -13.86111328 59.05220703 -12.69921875 59.10546875 C-11.70535156 59.13253906 -10.71148438 59.15960937 -9.6875 59.1875 C-8.70136719 59.22230469 -7.71523437 59.25710938 -6.69921875 59.29296875 C-4.03331396 59.22716345 -4.03331396 59.22716345 -2.35832214 57.82426453 C-0.4964379 55.32370205 -0.60248496 53.6211615 -0.56762695 50.51879883 C-0.54783279 49.39786331 -0.52803864 48.2769278 -0.50764465 47.12202454 C-0.50125473 45.91257675 -0.49486481 44.70312897 -0.48828125 43.45703125 C-0.47033005 42.21829758 -0.45237885 40.9795639 -0.43388367 39.70329285 C-0.38884923 36.4137054 -0.3565735 33.12431541 -0.33044434 29.83453369 C-0.30064061 26.47613983 -0.25410977 23.11798238 -0.20898438 19.75976562 C-0.12388652 13.17326454 -0.05715023 6.58680049 0 0 Z " fill="#5A3D1F" transform="translate(1769,1332)"/>
<path d="M0 0 C0.73605469 0.00451172 1.47210937 0.00902344 2.23046875 0.01367188 C4.02868158 0.02534858 5.82685197 0.04327989 7.625 0.0625 C7.625 3.0325 7.625 6.0025 7.625 9.0625 C2.675 9.0625 -2.275 9.0625 -7.375 9.0625 C-7.375 21.9325 -7.375 34.8025 -7.375 48.0625 C-11.005 48.0625 -14.635 48.0625 -18.375 48.0625 C-18.375 33.2125 -18.375 18.3625 -18.375 3.0625 C-12.26493244 0.00746622 -6.67721333 -0.07848442 0 0 Z " fill="#5A3D1F" transform="translate(1680.375,1331.9375)"/>
<path d="M0 0 C0.73605469 0.00451172 1.47210937 0.00902344 2.23046875 0.01367188 C4.02868158 0.02534858 5.82685197 0.04327989 7.625 0.0625 C7.625 3.0325 7.625 6.0025 7.625 9.0625 C2.675 9.0625 -2.275 9.0625 -7.375 9.0625 C-7.375 21.9325 -7.375 34.8025 -7.375 48.0625 C-11.005 48.0625 -14.635 48.0625 -18.375 48.0625 C-18.375 33.2125 -18.375 18.3625 -18.375 3.0625 C-12.26493244 0.00746622 -6.67721333 -0.07848442 0 0 Z " fill="#5A3D1F" transform="translate(1479.375,1331.9375)"/>
<path d="M0 0 C0.73605469 0.00451172 1.47210937 0.00902344 2.23046875 0.01367188 C4.02868158 0.02534858 5.82685197 0.04327989 7.625 0.0625 C7.625 3.0325 7.625 6.0025 7.625 9.0625 C2.675 9.0625 -2.275 9.0625 -7.375 9.0625 C-7.375 21.9325 -7.375 34.8025 -7.375 48.0625 C-11.005 48.0625 -14.635 48.0625 -18.375 48.0625 C-18.375 33.2125 -18.375 18.3625 -18.375 3.0625 C-12.26493244 0.00746622 -6.67721333 -0.07848442 0 0 Z " fill="#5A3D1F" transform="translate(944.375,1331.9375)"/>
<path d="M0 0 C3.625 0.25 3.625 0.25 5.5625 1.375 C7.12922245 4.13980433 7.01476435 6.13188517 6.625 9.25 C5.5625 11.125 5.5625 11.125 3.625 12.25 C0.125 12.75 0.125 12.75 -3.375 12.25 C-5.4375 10.125 -5.4375 10.125 -6.375 7.25 C-4.78369565 0.35434783 -4.78369565 0.35434783 0 0 Z " fill="#5A3D1F" transform="translate(1774.375,1312.75)"/>
</svg>
